<?xml version="1.0" encoding="UTF-8"?>
<svg width="100" height="100" viewBox="0 0 200 300" fill="none" xmlns="http://www.w3.org/2000/svg">
    <path d="M50 300C77.6142 300 100 277.614 100 250V200H50C22.3858 200 0 222.386 0 250C0 277.614 22.3858 300 50 300Z" fill="#0ACF83"/>
    <path d="M0 150C0 122.386 22.3858 100 50 100H100V200H50C22.3858 200 0 177.614 0 150Z" fill="#A259FF"/>
    <path d="M0 50C0 22.3858 22.3858 0 50 0H100V100H50C22.3858 100 0 77.6142 0 50Z" fill="#F24E1E"/>
    <path d="M100 0H150C177.614 0 200 22.3858 200 50C200 77.6142 177.614 100 150 100H100V0Z" fill="#FF7262"/>
    <path d="M200 150C200 177.614 177.614 200 150 200C122.386 200 100 177.614 100 150C100 122.386 122.386 100 150 100C177.614 100 200 122.386 200 150Z" fill="#1ABCFE"/>
</svg>
