<?xml version="1.0" encoding="UTF-8"?>
<svg width="100" height="100" viewBox="0 0 100 100" fill="none" xmlns="http://www.w3.org/2000/svg">
    <mask id="mask0" mask-type="alpha" maskUnits="userSpaceOnUse" x="0" y="0" width="100" height="100">
        <path fill-rule="evenodd" clip-rule="evenodd" d="M70.9119 99.3171C72.4869 99.9307 74.2828 99.8914 75.8725 99.1264L96.4608 89.2197C98.6242 88.1787 100 85.9892 100 83.5872V16.4128C100 14.0108 98.6243 11.8213 96.4609 10.7803L75.8725 0.873633C73.7862 -0.130439 71.3446 0.11576 69.5135 1.44695C69.252 1.63711 69.0028 1.84943 68.769 2.08341L29.3551 38.0415L12.1872 25.0096C10.589 23.7965 8.35363 23.8959 6.86933 25.2461L1.36303 30.2549C-0.452552 31.9064 -0.454633 34.7627 1.35853 36.417L16.2471 50.0001L1.35853 63.5832C-0.454633 65.2374 -0.452552 68.0938 1.36303 69.7453L6.86933 74.7541C8.35363 76.1043 10.589 76.2037 12.1872 74.9905L29.3551 61.9587L68.769 97.9168C69.3925 98.5407 70.1246 99.0087 70.9119 99.3171ZM75.0152 27.2989L45.1091 50.0001L75.0152 72.7012V27.2989Z" fill="white"/>
    </mask>
    <g mask="url(#mask0)">
        <path d="M96.4614 10.7803L75.873 0.873596C73.6146 -0.193391 71.0068 0.159285 69.1293 1.68123L1.36354 63.5832C-0.454117 65.2374 -0.452037 68.0938 1.36354 69.7453L6.86984 74.7541C8.35414 76.1043 10.5895 76.2037 12.1877 74.9905L93.3347 10.9505C95.2118 9.47325 98.0686 10.5354 98.0686 12.8891V12.7278C98.0686 11.8373 97.4502 11.0419 96.4614 10.7803Z" fill="#0065A9"/>
        <g filter="url(#filter0_d)">
            <path d="M96.4614 89.2197L75.873 99.1264C73.6146 100.193 71.0068 99.8407 69.1293 98.3188L1.36354 36.4169C-0.454117 34.7627 -0.452037 31.9063 1.36354 30.2548L6.86984 25.246C8.35414 23.8958 10.5895 23.7964 12.1877 25.0096L93.3347 89.0496C95.2118 90.5268 98.0686 89.4646 98.0686 87.1109V87.2722C98.0686 88.1627 97.4502 88.9581 96.4614 89.2197Z" fill="#007ACC"/>
        </g>
        <g filter="url(#filter1_d)">
            <path d="M75.873 99.1264C73.6146 100.193 71.0068 99.8407 69.1293 98.3188C71.2812 100.361 75.0152 98.9544 75.0152 95.9391V4.06091C75.0152 1.04559 71.2812 -0.360612 69.1293 1.68123C71.0068 0.159285 73.6146 -0.193391 75.873 0.873596L96.4614 10.7803C97.4502 11.0419 98.0686 11.8373 98.0686 12.7278V87.2722C98.0686 88.1627 97.4502 88.9581 96.4614 89.2197L75.873 99.1264Z" fill="#1F9CF0"/>
        </g>
        <g style="mix-blend-mode:overlay" opacity="0.25">
            <path fill-rule="evenodd" clip-rule="evenodd" d="M70.9119 99.3171C72.4869 99.9307 74.2828 99.8914 75.8725 99.1264L96.4608 89.2197C98.6242 88.1787 100 85.9892 100 83.5872V16.4128C100 14.0108 98.6243 11.8213 96.4609 10.7803L75.8725 0.873633C73.7862 -0.130439 71.3446 0.11576 69.5135 1.44695C69.252 1.63711 69.0028 1.84943 68.769 2.08341L29.3551 38.0415L12.1872 25.0096C10.589 23.7965 8.35363 23.8959 6.86933 25.2461L1.36303 30.2549C-0.452552 31.9064 -0.454633 34.7627 1.35853 36.417L16.2471 50.0001L1.35853 63.5832C-0.454633 65.2374 -0.452552 68.0938 1.36303 69.7453L6.86933 74.7541C8.35363 76.1043 10.589 76.2037 12.1872 74.9905L29.3551 61.9587L68.769 97.9168C69.3925 98.5407 70.1246 99.0087 70.9119 99.3171ZM75.0152 27.2989L45.1091 50.0001L75.0152 72.7012V27.2989Z" fill="url(#paint0_linear)"/>
        </g>
    </g>
    <defs>
        <filter id="filter0_d" x="-8.39411" y="15.8291" width="116.727" height="92.2456" filterUnits="userSpaceOnUse" color-interpolation-filters="sRGB">
            <feFlood flood-opacity="0" result="BackgroundImageFix"/>
            <feColorMatrix in="SourceAlpha" type="matrix" values="0 0 0 0 0 0 0 0 0 0 0 0 0 0 0 0 0 0 127 0"/>
            <feOffset/>
            <feGaussianBlur stdDeviation="4.16667"/>
            <feColorMatrix type="matrix" values="0 0 0 0 0 0 0 0 0 0 0 0 0 0 0 0 0 0 0.25 0"/>
            <feBlend mode="overlay" in2="BackgroundImageFix" result="effect1_dropShadow"/>
            <feBlend mode="normal" in="SourceGraphic" in2="effect1_dropShadow" result="shape"/>
        </filter>
        <filter id="filter1_d" x="60.7959" y="-8.07259" width="47.5364" height="116.145" filterUnits="userSpaceOnUse" color-interpolation-filters="sRGB">
            <feFlood flood-opacity="0" result="BackgroundImageFix"/>
            <feColorMatrix in="SourceAlpha" type="matrix" values="0 0 0 0 0 0 0 0 0 0 0 0 0 0 0 0 0 0 127 0"/>
            <feOffset/>
            <feGaussianBlur stdDeviation="4.16667"/>
            <feColorMatrix type="matrix" values="0 0 0 0 0 0 0 0 0 0 0 0 0 0 0 0 0 0 0.25 0"/>
            <feBlend mode="overlay" in2="BackgroundImageFix" result="effect1_dropShadow"/>
            <feBlend mode="normal" in="SourceGraphic" in2="effect1_dropShadow" result="shape"/>
        </filter>
        <linearGradient id="paint0_linear" x1="49.9392" y1="0.257812" x2="49.9392" y2="99.7423" gradientUnits="userSpaceOnUse">
            <stop stop-color="white"/>
            <stop offset="1" stop-color="white" stop-opacity="0"/>
        </linearGradient>
    </defs>
</svg>
